<?xml version="1.0" encoding="UTF-8"?>
<!DOCTYPE svg PUBLIC "-//W3C//DTD SVG 1.1//EN" "http://www.w3.org/Graphics/SVG/1.1/DTD/svg11.dtd">
<!-- Creator: CorelDRAW -->
<svg xmlns="http://www.w3.org/2000/svg" xml:space="preserve" width="286.771mm" height="204.853mm" style="shape-rendering:geometricPrecision; text-rendering:geometricPrecision; image-rendering:optimizeQuality; fill-rule:evenodd; clip-rule:evenodd"
viewBox="0 0 286.771 204.853">
 <defs>
  <style type="text/css">
   <![CDATA[
    .fil1 {fill:black}
    .fil0 {fill:white}
    .fil2 {fill:white;fill-rule:nonzero}
   ]]>
  </style>
 </defs>
 <g id="Layer_x0020_1">
  <metadata id="CorelCorpID_0Corel-Layer"/>
  <path class="fil0" d="M5.7448 181.399l-0.4092 0.0129c0.2288,10.9103 9.1285,19.6296 20.042,19.6296l236.425 0c10.7428,-0.2256 19.3911,-8.8868 19.6199,-19.6296l0.0129 -157.549c0,-10.9007 -8.7321,-19.8133 -19.6328,-20.042l-236.425 -0.0097c-11.0714,0 -20.042,8.9899 -20.042,20.0517l0 157.536 0.4092 0z"/>
  <path class="fil1" d="M15.9656 181.399l-0.3995 0c-0.0097,0.1386 -0.0097,0.2739 -0.0097,0.4092 0,5.1942 4.0342,9.4121 9.0028,9.4121 0.2739,0 0.5445,-0.0097 0.8184,-0.0323l0 0.0323 236.415 0 0 -0.0097c0.1354,0.0097 0.2707,0.0097 0.4093,0.0097 4.9653,0 9.0027,-4.2179 9.0027,-9.4121 0,-0.1353 0,-0.2706 -0.0128,-0.4092l0.4221 0 0 -157.536 -0.4447 0c0.0226,-0.2739 0.0354,-0.5478 0.0354,-0.8185 0,-5.1941 -4.0374,-9.412 -9.0027,-9.412 -0.1386,0 -0.2739,0.0097 -0.4093,0.0097l0 -0.0097 -236.415 0 0 0.0451c-0.2739,-0.0225 -0.5445,-0.0451 -0.8184,-0.0451 -4.9686,0 -9.0028,4.2179 -9.0028,9.412 0,0.2707 0.0097,0.5446 0.0322,0.8185l-0.0322 0 0 157.536 0.4092 0z"/>
  <path class="fil2" d="M176.45 71.0176c1.0064,3.1668 1.4974,6.2599 1.4974,9.2794 0,2.6513 -0.3928,5.3025 -1.2274,8.0029 -0.9083,7.8064 -4.6397,12.9862 -11.2187,15.5392 9.1075,5.5971 13.6735,13.1335 13.6735,22.5602 0,1.6447 -0.1472,3.314 -0.4418,5.0324 -1.0065,10.0404 -4.9343,17.9941 -11.7833,23.8858 -7.291,5.4252 -15.4166,8.1256 -24.4504,8.1256 -1.7675,0 -3.5596,-0.0982 -5.3516,-0.3192 -1.7921,-0.2209 -3.6578,-0.5155 -5.5726,-0.9083 -17.6504,-3.4368 -27.4207,-13.8945 -29.3355,-31.3485l0.27 -1.4484 2.3076 0c0.6382,-0.1473 1.2029,-0.27 1.6938,-0.3927 0.5156,-0.1228 1.0065,-0.1719 1.473,-0.1719l1.1537 0 1.4484 -0.2946 2.283 -0.2946 0.8592 0 0.8838 -0.27 0.8592 0 4.5906 -0.5892c3.5104,12.4216 10.3349,18.6324 20.498,18.6324 2.9704,0 6.309,-0.54 9.9913,-1.6447 6.4808,-3.6087 9.7212,-8.592 9.7212,-14.9747 0,-0.7119 -0.0245,-1.4483 -0.0982,-2.2093 -0.0736,-0.7856 -0.2209,-1.5712 -0.4173,-2.3813 -0.5646,-8.1992 -6.9472,-12.2988 -19.1233,-12.2988 -1.252,0 -2.5285,0.0246 -3.8296,0.0982 -1.2765,0.0736 -2.6513,0.2209 -4.0996,0.4173l0 -16.1284c1.0556,0.0982 2.0866,0.1718 3.0686,0.2209 0.9819,0.0491 1.9393,0.0737 2.8476,0.0737 13.4281,0 20.1298,-4.7379 20.1298,-14.2382 0,-2.7985 -0.6137,-6.088 -1.8657,-9.9422l-1.1537 -1.7184c-0.6629,-0.4909 -1.2766,-0.9328 -1.7921,-1.3747 -0.5401,-0.4173 -0.9819,-0.8346 -1.3747,-1.2274 -4.9343,-1.7184 -9.3776,-2.5776 -13.3054,-2.5776 -10.7768,0 -17.184,6.7017 -19.1969,20.1298 -0.8101,-0.1964 -1.5712,-0.3191 -2.234,-0.3928 -0.6628,-0.0736 -1.2765,-0.1227 -1.792,-0.1718l-0.8592 -0.2946 -2.3076 0 -1.4483 -0.2946 -0.8592 0 -1.4239 -0.27 -0.8837 0 -0.8592 -0.2946 -0.8592 0 -4.3206 -0.5646c3.0195,-22.2656 15.4902,-33.9507 37.4121,-35.1045l1.2765 0c18.0923,0 29.9247,7.3891 35.5464,22.1428z"/>
 </g>
</svg>
