<?xml version="1.0" encoding="utf-8"?>
<!-- Generator: Adobe Illustrator 18.1.1, SVG Export Plug-In . SVG Version: 6.00 Build 0)  -->
<!DOCTYPE svg PUBLIC "-//W3C//DTD SVG 1.1//EN" "http://www.w3.org/Graphics/SVG/1.1/DTD/svg11.dtd">
<svg version="1.1" id="Layer_1" xmlns="http://www.w3.org/2000/svg" xmlns:xlink="http://www.w3.org/1999/xlink" x="0px" y="0px"
	 width="500px" height="500px" viewBox="0 0 500 500" enable-background="new 0 0 500 500" xml:space="preserve">
<g>
	<path fill="#488B17" d="M250,498.6L250,498.6C112.9,498.6,1.5,387,1.5,250C1.5,113.3,112.5,1.9,249.2,1.4l0.3,0l0.8,0
		C387.2,1.6,498.5,113.1,498.5,250C498.5,387.1,387.1,498.6,250,498.6L250,498.6z M249.7,20.9C123.5,21.1,20.9,123.8,20.9,250
		c0,126.3,102.7,229.1,229,229.1h1.1c125.8-0.6,228-103.2,228-229.1c0-126.3-102.7-229.1-229-229.1L249.7,20.9z"/>
</g>
<g>
	<path fill="#488B17" d="M211.4,187.8c-0.7,5.6-2.2,7.1-7.9,7.1h-19.9c-5.6,0-7.1-1.5-6.7-7.1c1.9-43.9,36-63.7,75.7-63.7
		c47.2,0,71.2,21.7,71.2,59.2c0,33.4-25.9,50.2-48.4,58.5c25.9,3.4,53.6,21.4,53.6,60.4c0,45.4-33.4,73.9-84,73.9
		c-47.2,0-72.7-18.7-74.2-63c-0.4-5.6,1.1-7.1,6.7-7.1h21c6,0,7.1,1.5,7.9,7.1c1.9,23.6,14.6,31.9,39.7,31.9s41.6-10.1,41.6-43.1
		c0-30.7-16.9-40.9-40.1-42c-8.2-0.4-15,0-22.5-0.4c-5.6,0-7.1-1.5-7.1-7.1v-16.5c0-5.6,1.5-6.7,7.1-7.1c7.1-0.4,17.6-0.7,24.4-1.9
		c25.5-4.9,33.7-19.1,33.7-38.6c0-21-10.5-32.6-33.7-32.6C229.8,155.5,214,164.1,211.4,187.8z"/>
</g>
</svg>
